<mxfile host="app.diagrams.net" agent="Mozilla/5.0 (Macintosh; Intel Mac OS X 10_15_7) AppleWebKit/537.36 (KHTML, like Gecko) Chrome/139.0.0.0 Safari/537.36 Edg/139.0.0.0" version="28.1.2">
  <diagram name="Page-1" id="8PzLOZGVlnDP9y1a4ISa">
    <mxGraphModel dx="1165" dy="1778" grid="1" gridSize="10" guides="1" tooltips="1" connect="1" arrows="1" fold="1" page="0" pageScale="1" pageWidth="3300" pageHeight="4681" background="none" math="0" shadow="0">
      <root>
        <mxCell id="0" />
        <mxCell id="1" parent="0" />
        <mxCell id="J90GbbYKO_5uX6z3WsOh-30" value="Event Config" style="swimlane;childLayout=stackLayout;horizontal=1;startSize=50;horizontalStack=0;rounded=1;fontSize=14;fontStyle=0;strokeWidth=2;resizeParent=0;resizeLast=1;shadow=0;dashed=0;align=center;arcSize=4;whiteSpace=wrap;html=1;" parent="1" vertex="1">
          <mxGeometry x="990" y="-40" width="200" height="310" as="geometry" />
        </mxCell>
        <mxCell id="J90GbbYKO_5uX6z3WsOh-31" value="+ name&lt;div&gt;+ code/slug&lt;/div&gt;&lt;div&gt;+ missions: [code_mission,cm2]&lt;/div&gt;&lt;div&gt;+ start&lt;/div&gt;&lt;div&gt;+ end&lt;/div&gt;&lt;div&gt;+ package: [commission, free]&lt;/div&gt;&lt;div&gt;+ thumbnails:&lt;br&gt;-- mobile&lt;/div&gt;&lt;div&gt;-- url&lt;/div&gt;&lt;div&gt;-- iphone&lt;/div&gt;&lt;div&gt;+ game:&lt;/div&gt;&lt;div&gt;-- categories: [{&lt;span style=&quot;background-color: transparent; color: light-dark(rgb(0, 0, 0), rgb(255, 255, 255));&quot;&gt;name,&lt;/span&gt;&lt;span style=&quot;background-color: transparent; color: light-dark(rgb(0, 0, 0), rgb(255, 255, 255));&quot;&gt;id}&lt;/span&gt;&lt;span style=&quot;background-color: transparent; color: light-dark(rgb(0, 0, 0), rgb(255, 255, 255));&quot;&gt;]&lt;/span&gt;&lt;/div&gt;&lt;div&gt;-- game_id: [{id,meta}]&lt;span style=&quot;background-color: transparent; color: light-dark(rgb(0, 0, 0), rgb(255, 255, 255));&quot;&gt;&amp;nbsp;&lt;/span&gt;&lt;/div&gt;&lt;div&gt;+ condition:&lt;br&gt;-- point_unit // ex: 100000 = 1point&lt;span style=&quot;background-color: transparent; color: light-dark(rgb(0, 0, 0), rgb(255, 255, 255));&quot;&gt;&lt;/span&gt;&lt;/div&gt;&lt;div&gt;-- min_participate&lt;/div&gt;" style="align=left;strokeColor=none;fillColor=none;spacingLeft=4;spacingRight=4;fontSize=12;verticalAlign=top;resizable=0;rotatable=0;part=1;html=1;whiteSpace=wrap;" parent="J90GbbYKO_5uX6z3WsOh-30" vertex="1">
          <mxGeometry y="50" width="200" height="260" as="geometry" />
        </mxCell>
        <mxCell id="J90GbbYKO_5uX6z3WsOh-32" value="Mission Config" style="swimlane;childLayout=stackLayout;horizontal=1;startSize=50;horizontalStack=0;rounded=1;fontSize=14;fontStyle=0;strokeWidth=2;resizeParent=0;resizeLast=1;shadow=0;dashed=0;align=center;arcSize=4;whiteSpace=wrap;html=1;" parent="1" vertex="1">
          <mxGeometry x="1200" y="-40" width="340" height="350" as="geometry" />
        </mxCell>
        <mxCell id="J90GbbYKO_5uX6z3WsOh-33" value="+ code // event_code, package,giftcode&lt;div&gt;&lt;span style=&quot;background-color: transparent; color: light-dark(rgb(0, 0, 0), rgb(255, 255, 255));&quot;&gt;+ target&lt;/span&gt;&lt;div&gt;&lt;div&gt;+ duration: [0,n+]&lt;/div&gt;&lt;div&gt;+ unit: [none, day, week, month]&lt;/div&gt;&lt;div&gt;+ type: [login,bet,deposit,checkin,kyc]&lt;/div&gt;&lt;div&gt;+ condition:&lt;/div&gt;&lt;div&gt;-- min&lt;/div&gt;&lt;div&gt;-- method (only deposit)&lt;/div&gt;&lt;div&gt;+ mode: [single,highest, cumlative]&lt;/div&gt;&lt;div&gt;+ reward:&lt;/div&gt;&lt;div&gt;-- type&lt;/div&gt;&lt;div&gt;-- value&lt;/div&gt;&lt;div&gt;+ streak:&lt;/div&gt;&lt;div&gt;-- type:&amp;nbsp; [CONSECUTIVE, WEEKLY, MONTHLY, YEARLY]&lt;/div&gt;&lt;div&gt;--&amp;nbsp;week_start_day // only for weekly&lt;/div&gt;&lt;div&gt;--&amp;nbsp;required // streak require&lt;/div&gt;&lt;div&gt;-- reset_on_miss: true/false&lt;/div&gt;&lt;div&gt;+ config_type: [event,package,code]&lt;/div&gt;&lt;/div&gt;&lt;/div&gt;" style="align=left;strokeColor=none;fillColor=none;spacingLeft=4;spacingRight=4;fontSize=12;verticalAlign=top;resizable=0;rotatable=0;part=1;html=1;whiteSpace=wrap;" parent="J90GbbYKO_5uX6z3WsOh-32" vertex="1">
          <mxGeometry y="50" width="340" height="300" as="geometry" />
        </mxCell>
        <mxCell id="J90GbbYKO_5uX6z3WsOh-34" value="Mission Record" style="swimlane;childLayout=stackLayout;horizontal=1;startSize=50;horizontalStack=0;rounded=1;fontSize=14;fontStyle=0;strokeWidth=2;resizeParent=0;resizeLast=1;shadow=0;dashed=0;align=center;arcSize=4;whiteSpace=wrap;html=1;" parent="1" vertex="1">
          <mxGeometry x="1550" y="-40" width="360" height="170" as="geometry" />
        </mxCell>
        <mxCell id="J90GbbYKO_5uX6z3WsOh-35" value="&lt;div&gt;&lt;div&gt;+ user_id&lt;/div&gt;&lt;div&gt;+ type&lt;/div&gt;&lt;div&gt;+&amp;nbsp;mission_progress&lt;/div&gt;&lt;div&gt;+ claimed_missions:[{&lt;span style=&quot;background-color: transparent; color: light-dark(rgb(0, 0, 0), rgb(255, 255, 255));&quot;&gt;type,&amp;nbsp;&lt;/span&gt;&lt;span style=&quot;background-color: transparent; color: light-dark(rgb(0, 0, 0), rgb(255, 255, 255));&quot;&gt;value, event_code, package_code, code&lt;/span&gt;&lt;span style=&quot;background-color: transparent; color: light-dark(rgb(0, 0, 0), rgb(255, 255, 255));&quot;&gt;}]&lt;/span&gt;&lt;/div&gt;&lt;div&gt;&lt;span style=&quot;background-color: transparent; color: light-dark(rgb(0, 0, 0), rgb(255, 255, 255));&quot;&gt;+ meta: {&lt;/span&gt;&lt;span style=&quot;background-color: transparent;&quot;&gt;brand_category,&amp;nbsp;&lt;/span&gt;&lt;span style=&quot;background-color: transparent;&quot;&gt;partner_game_id,status&lt;/span&gt;&lt;span style=&quot;background-color: transparent; color: light-dark(rgb(0, 0, 0), rgb(255, 255, 255));&quot;&gt;}&lt;/span&gt;&lt;/div&gt;&lt;/div&gt;" style="align=left;strokeColor=none;fillColor=none;spacingLeft=4;spacingRight=4;fontSize=12;verticalAlign=top;resizable=0;rotatable=0;part=1;html=1;whiteSpace=wrap;" parent="J90GbbYKO_5uX6z3WsOh-34" vertex="1">
          <mxGeometry y="50" width="360" height="120" as="geometry" />
        </mxCell>
        <mxCell id="J90GbbYKO_5uX6z3WsOh-37" value="Package Config" style="swimlane;childLayout=stackLayout;horizontal=1;startSize=50;horizontalStack=0;rounded=1;fontSize=14;fontStyle=0;strokeWidth=2;resizeParent=0;resizeLast=1;shadow=0;dashed=0;align=center;arcSize=4;whiteSpace=wrap;html=1;" parent="1" vertex="1">
          <mxGeometry x="1750" y="335" width="200" height="150" as="geometry" />
        </mxCell>
        <mxCell id="J90GbbYKO_5uX6z3WsOh-38" value="+ package_code&lt;br&gt;+ package_applied: [vip,user]&lt;br&gt;+ missions: [code_mission,cm2]&lt;br&gt;&lt;div&gt;&lt;div&gt;+ game:&lt;/div&gt;&lt;div&gt;-- categories: [{&lt;span style=&quot;background-color: transparent; color: light-dark(rgb(0, 0, 0), rgb(255, 255, 255));&quot;&gt;name,&lt;/span&gt;&lt;span style=&quot;background-color: transparent; color: light-dark(rgb(0, 0, 0), rgb(255, 255, 255));&quot;&gt;id&lt;/span&gt;&lt;span style=&quot;background-color: transparent; color: light-dark(rgb(0, 0, 0), rgb(255, 255, 255));&quot;&gt;]&lt;/span&gt;&lt;/div&gt;&lt;div&gt;-- game_id: [{id,meta}]&lt;/div&gt;&lt;/div&gt;" style="align=left;strokeColor=none;fillColor=none;spacingLeft=4;spacingRight=4;fontSize=12;verticalAlign=top;resizable=0;rotatable=0;part=1;html=1;whiteSpace=wrap;" parent="J90GbbYKO_5uX6z3WsOh-37" vertex="1">
          <mxGeometry y="50" width="200" height="100" as="geometry" />
        </mxCell>
        <mxCell id="p9Gyj6V1JDZ9r0yw0AGN-16" style="edgeStyle=orthogonalEdgeStyle;rounded=0;orthogonalLoop=1;jettySize=auto;html=1;exitX=0.5;exitY=1;exitDx=0;exitDy=0;" parent="J90GbbYKO_5uX6z3WsOh-37" source="J90GbbYKO_5uX6z3WsOh-38" target="J90GbbYKO_5uX6z3WsOh-38" edge="1">
          <mxGeometry relative="1" as="geometry" />
        </mxCell>
        <mxCell id="3uKjWk4hopH8gtwuVv8X-12" style="edgeStyle=orthogonalEdgeStyle;rounded=0;orthogonalLoop=1;jettySize=auto;html=1;exitX=0.5;exitY=1;exitDx=0;exitDy=0;" edge="1" parent="J90GbbYKO_5uX6z3WsOh-37" source="J90GbbYKO_5uX6z3WsOh-38" target="J90GbbYKO_5uX6z3WsOh-38">
          <mxGeometry relative="1" as="geometry" />
        </mxCell>
        <mxCell id="J90GbbYKO_5uX6z3WsOh-39" value="Event Point" style="swimlane;childLayout=stackLayout;horizontal=1;startSize=50;horizontalStack=0;rounded=1;fontSize=14;fontStyle=0;strokeWidth=2;resizeParent=0;resizeLast=1;shadow=0;dashed=0;align=center;arcSize=4;whiteSpace=wrap;html=1;" parent="1" vertex="1">
          <mxGeometry x="1170" y="330" width="180" height="170" as="geometry" />
        </mxCell>
        <mxCell id="J90GbbYKO_5uX6z3WsOh-40" value="&lt;div&gt;&lt;span style=&quot;background-color: transparent; color: light-dark(rgb(0, 0, 0), rgb(255, 255, 255));&quot;&gt;+ event_code&lt;/span&gt;&lt;/div&gt;&lt;div&gt;&lt;span style=&quot;background-color: transparent; color: light-dark(rgb(0, 0, 0), rgb(255, 255, 255));&quot;&gt;+ user_id&lt;/span&gt;&lt;/div&gt;&lt;div&gt;+ username&lt;/div&gt;&lt;div&gt;+ total_bet&lt;/div&gt;&lt;div&gt;+ total_deposit&lt;/div&gt;&lt;div&gt;+ point&lt;/div&gt;&lt;div&gt;+ type&lt;/div&gt;" style="align=left;strokeColor=none;fillColor=none;spacingLeft=4;spacingRight=4;fontSize=12;verticalAlign=top;resizable=0;rotatable=0;part=1;html=1;whiteSpace=wrap;" parent="J90GbbYKO_5uX6z3WsOh-39" vertex="1">
          <mxGeometry y="50" width="180" height="120" as="geometry" />
        </mxCell>
        <mxCell id="J90GbbYKO_5uX6z3WsOh-45" value="History Transaction" style="swimlane;childLayout=stackLayout;horizontal=1;startSize=50;horizontalStack=0;rounded=1;fontSize=14;fontStyle=0;strokeWidth=2;resizeParent=0;resizeLast=1;shadow=0;dashed=0;align=center;arcSize=4;whiteSpace=wrap;html=1;" parent="1" vertex="1">
          <mxGeometry x="1550" y="340" width="190" height="150" as="geometry" />
        </mxCell>
        <mxCell id="J90GbbYKO_5uX6z3WsOh-46" value="&lt;div&gt;+ user_id&lt;/div&gt;&lt;div&gt;+ source&lt;/div&gt;&lt;div&gt;+ change_type&lt;/div&gt;&lt;div&gt;+ note&lt;/div&gt;&lt;div&gt;+ change_time&lt;/div&gt;" style="align=left;strokeColor=none;fillColor=none;spacingLeft=4;spacingRight=4;fontSize=12;verticalAlign=top;resizable=0;rotatable=0;part=1;html=1;whiteSpace=wrap;" parent="J90GbbYKO_5uX6z3WsOh-45" vertex="1">
          <mxGeometry y="50" width="190" height="100" as="geometry" />
        </mxCell>
        <mxCell id="p9Gyj6V1JDZ9r0yw0AGN-17" value="System Point" style="swimlane;childLayout=stackLayout;horizontal=1;startSize=50;horizontalStack=0;rounded=1;fontSize=14;fontStyle=0;strokeWidth=2;resizeParent=0;resizeLast=1;shadow=0;dashed=0;align=center;arcSize=4;whiteSpace=wrap;html=1;" parent="1" vertex="1">
          <mxGeometry x="1360" y="332" width="180" height="160" as="geometry" />
        </mxCell>
        <mxCell id="p9Gyj6V1JDZ9r0yw0AGN-18" value="&lt;div&gt;&lt;span style=&quot;background-color: transparent; color: light-dark(rgb(0, 0, 0), rgb(255, 255, 255));&quot;&gt;+ user_id&lt;/span&gt;&lt;/div&gt;&lt;div&gt;+ username&lt;/div&gt;&lt;div&gt;+ total_bet&lt;/div&gt;&lt;div&gt;+ total_deposit&lt;/div&gt;&lt;div&gt;+ point&lt;/div&gt;&lt;div&gt;+ type:[fake, vip, gold, silver]&lt;/div&gt;&lt;div&gt;&lt;br&gt;&lt;/div&gt;" style="align=left;strokeColor=none;fillColor=none;spacingLeft=4;spacingRight=4;fontSize=12;verticalAlign=top;resizable=0;rotatable=0;part=1;html=1;whiteSpace=wrap;" parent="p9Gyj6V1JDZ9r0yw0AGN-17" vertex="1">
          <mxGeometry y="50" width="180" height="110" as="geometry" />
        </mxCell>
        <mxCell id="p9Gyj6V1JDZ9r0yw0AGN-19" value="Event Pot" style="swimlane;childLayout=stackLayout;horizontal=1;startSize=50;horizontalStack=0;rounded=1;fontSize=14;fontStyle=0;strokeWidth=2;resizeParent=0;resizeLast=1;shadow=0;dashed=0;align=center;arcSize=4;whiteSpace=wrap;html=1;" parent="1" vertex="1">
          <mxGeometry x="1000" y="300" width="160" height="220" as="geometry" />
        </mxCell>
        <mxCell id="p9Gyj6V1JDZ9r0yw0AGN-20" value="&lt;div&gt;&lt;span style=&quot;background-color: transparent; color: light-dark(rgb(0, 0, 0), rgb(255, 255, 255));&quot;&gt;+ event_code&lt;/span&gt;&lt;/div&gt;&lt;div&gt;+&amp;nbsp;phase&lt;span style=&quot;background-color: transparent; color: light-dark(rgb(0, 0, 0), rgb(255, 255, 255));&quot;&gt;&lt;/span&gt;&lt;/div&gt;+ total_bet&lt;div&gt;+ start_value&lt;br&gt;+ current_value_real&lt;div&gt;+&amp;nbsp;current_value_fake&lt;/div&gt;&lt;div&gt;&lt;span style=&quot;background-color: transparent; color: light-dark(rgb(0, 0, 0), rgb(255, 255, 255));&quot;&gt;+&amp;nbsp;bet_fake_to_pot: %&lt;/span&gt;&lt;/div&gt;&lt;div&gt;&lt;div&gt;+&amp;nbsp;bet_real_to_pot: %&lt;/div&gt;&lt;div&gt;&lt;div&gt;+&amp;nbsp;status&lt;/div&gt;&lt;div&gt;+ type&lt;/div&gt;&lt;div&gt;&lt;/div&gt;&lt;/div&gt;&lt;/div&gt;&lt;/div&gt;" style="align=left;strokeColor=none;fillColor=none;spacingLeft=4;spacingRight=4;fontSize=12;verticalAlign=top;resizable=0;rotatable=0;part=1;html=1;whiteSpace=wrap;" parent="p9Gyj6V1JDZ9r0yw0AGN-19" vertex="1">
          <mxGeometry y="50" width="160" height="170" as="geometry" />
        </mxCell>
        <mxCell id="p9Gyj6V1JDZ9r0yw0AGN-23" value="leaderboard" style="swimlane;childLayout=stackLayout;horizontal=1;startSize=50;horizontalStack=0;rounded=1;fontSize=14;fontStyle=0;strokeWidth=2;resizeParent=0;resizeLast=1;shadow=0;dashed=0;align=center;arcSize=4;whiteSpace=wrap;html=1;" parent="1" vertex="1">
          <mxGeometry x="1000" y="540" width="150" height="180" as="geometry" />
        </mxCell>
        <mxCell id="p9Gyj6V1JDZ9r0yw0AGN-24" value="+ event_code&lt;div&gt;+ event_type&lt;br&gt;+ phase&lt;br&gt;+ user_id&lt;div&gt;+ username&lt;/div&gt;&lt;div&gt;+ point: 0++&lt;/div&gt;&lt;div&gt;+ is_fake_user: true/false&lt;/div&gt;&lt;div&gt;+ archived: true/false&amp;nbsp;&lt;/div&gt;&lt;/div&gt;" style="align=left;strokeColor=none;fillColor=none;spacingLeft=4;spacingRight=4;fontSize=12;verticalAlign=top;resizable=0;rotatable=0;part=1;html=1;whiteSpace=wrap;" parent="p9Gyj6V1JDZ9r0yw0AGN-23" vertex="1">
          <mxGeometry y="50" width="150" height="130" as="geometry" />
        </mxCell>
        <mxCell id="3uKjWk4hopH8gtwuVv8X-14" value="MissionStreak" style="swimlane;childLayout=stackLayout;horizontal=1;startSize=50;horizontalStack=0;rounded=1;fontSize=14;fontStyle=0;strokeWidth=2;resizeParent=0;resizeLast=1;shadow=0;dashed=0;align=center;arcSize=4;whiteSpace=wrap;html=1;" vertex="1" parent="1">
          <mxGeometry x="1330" y="520" width="180" height="160" as="geometry" />
        </mxCell>
        <mxCell id="3uKjWk4hopH8gtwuVv8X-15" value="&lt;div&gt;&lt;span style=&quot;background-color: transparent; color: light-dark(rgb(0, 0, 0), rgb(255, 255, 255));&quot;&gt;+ user_id&lt;/span&gt;&lt;/div&gt;&lt;div&gt;+ mission_type&lt;/div&gt;&lt;div&gt;+ required&lt;/div&gt;&lt;div&gt;+ current_streak&lt;/div&gt;&lt;div&gt;+ type&lt;/div&gt;&lt;div&gt;+&amp;nbsp;last_completed_date&lt;/div&gt;" style="align=left;strokeColor=none;fillColor=none;spacingLeft=4;spacingRight=4;fontSize=12;verticalAlign=top;resizable=0;rotatable=0;part=1;html=1;whiteSpace=wrap;" vertex="1" parent="3uKjWk4hopH8gtwuVv8X-14">
          <mxGeometry y="50" width="180" height="110" as="geometry" />
        </mxCell>
      </root>
    </mxGraphModel>
  </diagram>
</mxfile>
